<?xml version="1.0" encoding="utf-8"?><svg xmlns="http://www.w3.org/2000/svg" xmlns:xlink="http://www.w3.org/1999/xlink"><symbol viewBox="0 0 512 512" id="puzzle" xmlns="http://www.w3.org/2000/svg"><path d="M467 0H271v102.396c0 12.918-15.282 19.777-24.961 11.221A30.148 30.148 0 0 0 226 106c-16.538 0-30 13.462-30 30s13.462 30 30 30c7.397 0 14.517-2.71 20.039-7.617 9.776-8.611 24.961-1.584 24.961 11.221V241h46.89a60.485 60.485 0 0 1-1.89-15c0-33.091 26.909-60 60-60s60 26.909 60 60c0 5.098-.645 10.137-1.89 15H512V45c0-24.853-20.147-45-45-45z"/><path d="M226 76c5.098 0 10.137.645 15 1.89V0H45C20.147 0 0 20.147 0 45v196h102.396c12.893 0 19.796 15.262 11.221 24.961A30.148 30.148 0 0 0 106 286c0 16.538 13.462 30 30 30s30-13.462 30-30c0-7.397-2.71-14.517-7.617-20.039-8.575-9.699-1.672-24.961 11.221-24.961H241v-46.89a60.485 60.485 0 0 1-15 1.89c-33.091 0-60-26.909-60-60s26.909-60 60-60zm183.604 195c-12.892 0-19.796-15.264-11.221-24.961A30.148 30.148 0 0 0 406 226c0-16.538-13.462-30-30-30s-30 13.462-30 30c0 7.397 2.71 14.517 7.617 20.039 8.575 9.697 1.672 24.961-11.221 24.961H271v46.89a60.485 60.485 0 0 1 15-1.89c33.091 0 60 26.909 60 60s-26.909 60-60 60a60.485 60.485 0 0 1-15-1.89V512h196c24.853 0 45-20.147 45-45V271H409.604z"/><path d="M286 346a30.148 30.148 0 0 0-20.039 7.617C256.26 362.221 241 355.258 241 342.396V271h-46.89a60.485 60.485 0 0 1 1.89 15c0 33.091-26.909 60-60 60s-60-26.909-60-60c0-5.098.645-10.137 1.89-15H0v196c0 24.853 20.147 45 45 45h196V409.604c0-12.914 15.3-19.792 24.961-11.221A30.148 30.148 0 0 0 286 406c16.538 0 30-13.462 30-30s-13.462-30-30-30z"/></symbol></svg>